<?xml version="1.0" standalone="no"?>
<!DOCTYPE svg PUBLIC "-//W3C//DTD SVG 20010904//EN"
 "http://www.w3.org/TR/2001/REC-SVG-20010904/DTD/svg10.dtd">
<svg version="1.0" xmlns="http://www.w3.org/2000/svg"
 width="600.000000pt" height="600.000000pt" viewBox="0 0 600.000000 600.000000"
 preserveAspectRatio="xMidYMid meet">
<metadata>
Created by potrace 1.11, written by Peter Selinger 2001-2013
</metadata>
<g transform="translate(0.000000,600.000000) scale(0.100000,-0.100000)"
fill="#000000" stroke="none">
<path d="M3146 5458 c-3 -13 -6 -57 -6 -98 0 -41 -4 -81 -9 -89 -8 -12 -72
-21 -213 -31 -5 0 -8 -335 -8 -744 l0 -743 -46 -7 c-26 -3 -64 -6 -84 -6 -21
0 -51 -3 -68 -6 l-30 -6 -7 -102 c-4 -58 -12 -104 -18 -108 -7 -4 -80 -8 -164
-8 l-152 0 -5 -52 c-4 -29 -10 -82 -14 -118 l-7 -65 -161 -3 -161 -2 -7 -47
c-3 -25 -6 -69 -6 -97 0 -77 -4 -80 -119 -84 l-101 -4 -4 -32 c-3 -17 -9 -65
-13 -106 l-8 -75 -201 -3 -202 -2 -5 42 c-4 24 -9 73 -13 109 l-6 67 -37 6
c-20 3 -61 6 -91 6 -30 0 -60 4 -67 8 -6 4 -16 51 -21 105 -5 54 -12 100 -15
103 -3 3 -40 8 -84 10 -43 3 -93 7 -110 10 l-33 5 0 219 0 220 -125 0 -125 0
0 -704 0 -703 102 -7 c57 -4 104 -9 107 -11 2 -3 8 -50 12 -106 5 -55 12 -105
15 -110 3 -5 50 -9 104 -9 54 0 101 -4 104 -8 2 -4 8 -52 12 -107 4 -55 12
-103 18 -107 6 -4 38 -8 71 -8 33 0 77 -3 98 -6 36 -6 37 -8 37 -48 0 -22 3
-71 6 -107 l7 -67 107 -7 c124 -8 120 -4 120 -115 0 -103 4 -110 60 -110 26 0
75 -3 109 -6 l61 -7 0 -453 0 -454 240 0 240 0 0 124 0 124 -100 7 -100 7 0
94 0 94 38 0 c20 0 67 3 103 6 l67 7 7 86 c11 137 7 131 80 131 34 0 83 3 109
6 l46 7 0 56 c0 31 3 80 7 109 l6 53 86 -3 86 -3 10 -102 c6 -56 14 -105 18
-110 4 -4 56 -10 115 -14 59 -4 108 -7 110 -8 1 -1 2 -152 2 -336 l0 -335 240
0 240 0 0 130 0 130 -105 0 -105 0 0 439 0 439 108 8 107 9 5 102 c3 56 8 105
12 109 7 6 138 22 201 23 l27 1 0 164 0 164 88 7 c48 3 99 9 114 11 l28 6 2
391 3 392 84 3 c61 2 87 -1 92 -10 5 -7 9 -44 9 -83 0 -122 -7 -115 136 -115
l124 0 0 245 0 245 -220 2 -221 3 0 210 0 210 455 5 454 5 -1 133 0 132 -344
0 -343 0 0 95 0 95 575 0 575 0 0 535 0 534 -32 5 c-18 3 -66 7 -107 10 -40 3
-76 7 -78 10 -3 3 -8 51 -12 108 l-6 103 -936 3 -937 2 -6 -22z m494 -448 l0
-130 -135 0 -135 0 0 123 c0 68 3 127 7 130 3 4 64 7 135 7 l128 0 0 -130z"/>
</g>
</svg>
